G04 #@! TF.FileFunction,Paste,Top*
%FSLAX46Y46*%
G04 Gerber Fmt 4.6, Leading zero omitted, Abs format (unit mm)*
G04 Created by KiCad (PCBNEW 4.0.6) date 11/13/18 16:30:56*
%MOMM*%
%LPD*%
G01*
G04 APERTURE LIST*
%ADD10C,0.100000*%
%ADD11R,1.143000X0.508000*%
%ADD12R,2.600000X1.600000*%
%ADD13R,3.000000X1.600000*%
%ADD14R,1.600000X3.000000*%
%ADD15R,0.508000X1.143000*%
%ADD16R,1.250000X1.500000*%
%ADD17R,1.500000X1.300000*%
%ADD18R,0.900000X1.200000*%
%ADD19R,1.000000X1.450000*%
G04 APERTURE END LIST*
D10*
D11*
X187175000Y-104555000D03*
X187175000Y-107095000D03*
X187175000Y-108365000D03*
X187175000Y-109635000D03*
X187175000Y-110905000D03*
X187175000Y-112175000D03*
X187175000Y-113445000D03*
X180825000Y-113445000D03*
X180825000Y-112175000D03*
X180825000Y-110905000D03*
X180825000Y-109635000D03*
X180825000Y-108365000D03*
X180825000Y-107095000D03*
X180825000Y-105825000D03*
X180825000Y-104555000D03*
X187175000Y-105825000D03*
D12*
X155600000Y-111000000D03*
X152000000Y-111000000D03*
D13*
X143600000Y-111000000D03*
X148000000Y-111000000D03*
D14*
X144000000Y-46300000D03*
X144000000Y-50700000D03*
D15*
X151445000Y-98175000D03*
X148905000Y-98175000D03*
X147635000Y-98175000D03*
X146365000Y-98175000D03*
X145095000Y-98175000D03*
X143825000Y-98175000D03*
X142555000Y-98175000D03*
X142555000Y-91825000D03*
X143825000Y-91825000D03*
X145095000Y-91825000D03*
X146365000Y-91825000D03*
X147635000Y-91825000D03*
X148905000Y-91825000D03*
X150175000Y-91825000D03*
X151445000Y-91825000D03*
X150175000Y-98175000D03*
D11*
X187325000Y-86780000D03*
X187325000Y-89320000D03*
X187325000Y-90590000D03*
X187325000Y-91860000D03*
X187325000Y-93130000D03*
X187325000Y-94400000D03*
X187325000Y-95670000D03*
X180975000Y-95670000D03*
X180975000Y-94400000D03*
X180975000Y-93130000D03*
X180975000Y-91860000D03*
X180975000Y-90590000D03*
X180975000Y-89320000D03*
X180975000Y-88050000D03*
X180975000Y-86780000D03*
X187325000Y-88050000D03*
D16*
X154954000Y-96688000D03*
X154954000Y-94188000D03*
D17*
X150810000Y-102530000D03*
X153510000Y-102530000D03*
D18*
X106500000Y-124700000D03*
X106500000Y-122500000D03*
X106500000Y-46200000D03*
X106500000Y-44000000D03*
D19*
X109350000Y-113500000D03*
X109350000Y-118650000D03*
X107650000Y-118650000D03*
X107650000Y-113500000D03*
M02*
