G04 #@! TF.FileFunction,Soldermask,Bot*
%FSLAX46Y46*%
G04 Gerber Fmt 4.6, Leading zero omitted, Abs format (unit mm)*
G04 Created by KiCad (PCBNEW 4.0.6) date 11/13/18 16:30:56*
%MOMM*%
%LPD*%
G01*
G04 APERTURE LIST*
%ADD10C,0.100000*%
%ADD11R,1.924000X1.924000*%
%ADD12C,1.924000*%
%ADD13R,2.200000X2.200000*%
%ADD14O,2.200000X2.200000*%
%ADD15C,1.808000*%
%ADD16C,2.800000*%
%ADD17R,3.900000X3.900000*%
%ADD18R,2.100000X2.100000*%
%ADD19O,2.100000X2.100000*%
%ADD20C,1.150000*%
G04 APERTURE END LIST*
D10*
D11*
X149110000Y-54850000D03*
D12*
X151650000Y-54850000D03*
X154190000Y-54850000D03*
X156730000Y-54850000D03*
X159270000Y-54850000D03*
X161810000Y-54850000D03*
D11*
X164350000Y-54850000D03*
D12*
X166890000Y-54850000D03*
X166890000Y-42150000D03*
X164350000Y-42150000D03*
X161810000Y-42150000D03*
X159270000Y-42150000D03*
X156730000Y-42150000D03*
X154190000Y-42150000D03*
X151650000Y-42150000D03*
X149110000Y-42150000D03*
D13*
X154540000Y-119000000D03*
D14*
X152000000Y-119000000D03*
X149460000Y-119000000D03*
D15*
X131490000Y-63490000D03*
X128950000Y-62220000D03*
X131490000Y-60950000D03*
X128950000Y-59680000D03*
X131490000Y-58410000D03*
X128950000Y-57140000D03*
X131490000Y-55870000D03*
X128950000Y-54600000D03*
X124890000Y-63490000D03*
X122350000Y-62220000D03*
X124890000Y-60950000D03*
X122350000Y-59680000D03*
X124890000Y-58410000D03*
X122350000Y-57140000D03*
X124890000Y-55870000D03*
X122350000Y-54600000D03*
X131490000Y-77460000D03*
X128950000Y-76190000D03*
X131490000Y-74920000D03*
X128950000Y-73650000D03*
X131490000Y-72380000D03*
X128950000Y-71110000D03*
X131490000Y-69840000D03*
X128950000Y-68570000D03*
X124890000Y-77460000D03*
X122350000Y-76190000D03*
X124890000Y-74920000D03*
X122350000Y-73650000D03*
X124890000Y-72380000D03*
X122350000Y-71110000D03*
X124890000Y-69840000D03*
X122350000Y-68570000D03*
X131490000Y-105400000D03*
X128950000Y-104130000D03*
X131490000Y-102860000D03*
X128950000Y-101590000D03*
X131490000Y-100320000D03*
X128950000Y-99050000D03*
X131490000Y-97780000D03*
X128950000Y-96510000D03*
X124890000Y-105400000D03*
X122350000Y-104130000D03*
X124890000Y-102860000D03*
X122350000Y-101590000D03*
X124890000Y-100320000D03*
X122350000Y-99050000D03*
X124890000Y-97780000D03*
X122350000Y-96510000D03*
X131490000Y-91430000D03*
X128950000Y-90160000D03*
X131490000Y-88890000D03*
X128950000Y-87620000D03*
X131490000Y-86350000D03*
X128950000Y-85080000D03*
X131490000Y-83810000D03*
X128950000Y-82540000D03*
X124890000Y-91430000D03*
X122350000Y-90160000D03*
X124890000Y-88890000D03*
X122350000Y-87620000D03*
X124890000Y-86350000D03*
X122350000Y-85080000D03*
X124890000Y-83810000D03*
X122350000Y-82540000D03*
D16*
X111430000Y-109470000D03*
X121850000Y-108710000D03*
X127430000Y-109470000D03*
X111430000Y-50530000D03*
X125150000Y-51290000D03*
X131500000Y-50530000D03*
D11*
X137200000Y-80430000D03*
D12*
X139740000Y-80430000D03*
X142280000Y-80430000D03*
X144820000Y-80430000D03*
X147360000Y-80430000D03*
X149900000Y-80430000D03*
X152440000Y-80430000D03*
X154980000Y-80430000D03*
X157520000Y-80430000D03*
X160060000Y-80430000D03*
X162600000Y-80430000D03*
X165140000Y-80430000D03*
X167680000Y-80430000D03*
X170220000Y-80430000D03*
X172760000Y-80430000D03*
X175300000Y-80430000D03*
X177840000Y-80430000D03*
X180380000Y-80430000D03*
X182920000Y-80430000D03*
X185460000Y-80430000D03*
X188000000Y-80430000D03*
X190540000Y-80430000D03*
X193080000Y-80430000D03*
X195620000Y-80430000D03*
X198160000Y-80430000D03*
X200700000Y-80430000D03*
X198160000Y-60110000D03*
X195620000Y-60110000D03*
X193080000Y-60110000D03*
X190540000Y-60110000D03*
X188000000Y-60110000D03*
X185460000Y-60110000D03*
X182920000Y-60110000D03*
X180380000Y-60110000D03*
X177840000Y-60110000D03*
X175300000Y-60110000D03*
X172760000Y-60110000D03*
X170220000Y-60110000D03*
X167680000Y-60110000D03*
X165140000Y-60110000D03*
X162600000Y-60110000D03*
X160060000Y-60110000D03*
X157520000Y-60110000D03*
X154980000Y-60110000D03*
X152440000Y-60110000D03*
X149900000Y-60110000D03*
X147360000Y-60110000D03*
X144820000Y-60110000D03*
X142280000Y-60110000D03*
X139740000Y-60110000D03*
X137200000Y-60110000D03*
X200700000Y-60110000D03*
D17*
X191000000Y-70000000D03*
X197000000Y-70000000D03*
X194000000Y-65300000D03*
D18*
X191770000Y-104560000D03*
D19*
X194310000Y-104560000D03*
X191770000Y-107100000D03*
X194310000Y-107100000D03*
X191770000Y-109640000D03*
X194310000Y-109640000D03*
X191770000Y-112180000D03*
X194310000Y-112180000D03*
X191770000Y-114720000D03*
X194310000Y-114720000D03*
X191770000Y-117260000D03*
X194310000Y-117260000D03*
X191770000Y-119800000D03*
X194310000Y-119800000D03*
D18*
X191770000Y-86780000D03*
D19*
X194310000Y-86780000D03*
X191770000Y-89320000D03*
X194310000Y-89320000D03*
X191770000Y-91860000D03*
X194310000Y-91860000D03*
X191770000Y-94400000D03*
X194310000Y-94400000D03*
X191770000Y-96940000D03*
X194310000Y-96940000D03*
X191770000Y-99480000D03*
X194310000Y-99480000D03*
X191770000Y-102020000D03*
X194310000Y-102020000D03*
D18*
X195000000Y-42960000D03*
D19*
X195000000Y-45500000D03*
X195000000Y-48040000D03*
X195000000Y-50580000D03*
D20*
X109875000Y-116075000D03*
X107125000Y-116075000D03*
M02*
