G04 #@! TF.FileFunction,Soldermask,Top*
%FSLAX46Y46*%
G04 Gerber Fmt 4.6, Leading zero omitted, Abs format (unit mm)*
G04 Created by KiCad (PCBNEW 4.0.6) date 11/13/18 16:30:56*
%MOMM*%
%LPD*%
G01*
G04 APERTURE LIST*
%ADD10C,0.100000*%
%ADD11R,1.543000X0.908000*%
%ADD12R,3.000000X2.000000*%
%ADD13R,1.924000X1.924000*%
%ADD14C,1.924000*%
%ADD15R,2.200000X2.200000*%
%ADD16O,2.200000X2.200000*%
%ADD17R,3.400000X2.000000*%
%ADD18R,2.000000X3.400000*%
%ADD19C,1.808000*%
%ADD20C,2.800000*%
%ADD21R,0.908000X1.543000*%
%ADD22R,3.900000X3.900000*%
%ADD23R,1.650000X1.900000*%
%ADD24R,1.900000X1.700000*%
%ADD25R,2.100000X2.100000*%
%ADD26O,2.100000X2.100000*%
%ADD27R,1.300000X1.600000*%
%ADD28R,1.400000X1.850000*%
%ADD29C,1.150000*%
G04 APERTURE END LIST*
D10*
D11*
X187175000Y-104555000D03*
X187175000Y-107095000D03*
X187175000Y-108365000D03*
X187175000Y-109635000D03*
X187175000Y-110905000D03*
X187175000Y-112175000D03*
X187175000Y-113445000D03*
X180825000Y-113445000D03*
X180825000Y-112175000D03*
X180825000Y-110905000D03*
X180825000Y-109635000D03*
X180825000Y-108365000D03*
X180825000Y-107095000D03*
X180825000Y-105825000D03*
X180825000Y-104555000D03*
X187175000Y-105825000D03*
D12*
X155600000Y-111000000D03*
X152000000Y-111000000D03*
D13*
X149110000Y-54850000D03*
D14*
X151650000Y-54850000D03*
X154190000Y-54850000D03*
X156730000Y-54850000D03*
X159270000Y-54850000D03*
X161810000Y-54850000D03*
D13*
X164350000Y-54850000D03*
D14*
X166890000Y-54850000D03*
X166890000Y-42150000D03*
X164350000Y-42150000D03*
X161810000Y-42150000D03*
X159270000Y-42150000D03*
X156730000Y-42150000D03*
X154190000Y-42150000D03*
X151650000Y-42150000D03*
X149110000Y-42150000D03*
D15*
X154540000Y-119000000D03*
D16*
X152000000Y-119000000D03*
X149460000Y-119000000D03*
D17*
X143600000Y-111000000D03*
X148000000Y-111000000D03*
D18*
X144000000Y-46300000D03*
X144000000Y-50700000D03*
D19*
X131490000Y-63490000D03*
X128950000Y-62220000D03*
X131490000Y-60950000D03*
X128950000Y-59680000D03*
X131490000Y-58410000D03*
X128950000Y-57140000D03*
X131490000Y-55870000D03*
X128950000Y-54600000D03*
X124890000Y-63490000D03*
X122350000Y-62220000D03*
X124890000Y-60950000D03*
X122350000Y-59680000D03*
X124890000Y-58410000D03*
X122350000Y-57140000D03*
X124890000Y-55870000D03*
X122350000Y-54600000D03*
X131490000Y-77460000D03*
X128950000Y-76190000D03*
X131490000Y-74920000D03*
X128950000Y-73650000D03*
X131490000Y-72380000D03*
X128950000Y-71110000D03*
X131490000Y-69840000D03*
X128950000Y-68570000D03*
X124890000Y-77460000D03*
X122350000Y-76190000D03*
X124890000Y-74920000D03*
X122350000Y-73650000D03*
X124890000Y-72380000D03*
X122350000Y-71110000D03*
X124890000Y-69840000D03*
X122350000Y-68570000D03*
X131490000Y-105400000D03*
X128950000Y-104130000D03*
X131490000Y-102860000D03*
X128950000Y-101590000D03*
X131490000Y-100320000D03*
X128950000Y-99050000D03*
X131490000Y-97780000D03*
X128950000Y-96510000D03*
X124890000Y-105400000D03*
X122350000Y-104130000D03*
X124890000Y-102860000D03*
X122350000Y-101590000D03*
X124890000Y-100320000D03*
X122350000Y-99050000D03*
X124890000Y-97780000D03*
X122350000Y-96510000D03*
X131490000Y-91430000D03*
X128950000Y-90160000D03*
X131490000Y-88890000D03*
X128950000Y-87620000D03*
X131490000Y-86350000D03*
X128950000Y-85080000D03*
X131490000Y-83810000D03*
X128950000Y-82540000D03*
X124890000Y-91430000D03*
X122350000Y-90160000D03*
X124890000Y-88890000D03*
X122350000Y-87620000D03*
X124890000Y-86350000D03*
X122350000Y-85080000D03*
X124890000Y-83810000D03*
X122350000Y-82540000D03*
D20*
X111430000Y-109470000D03*
X121850000Y-108710000D03*
X127430000Y-109470000D03*
X111430000Y-50530000D03*
X125150000Y-51290000D03*
X131500000Y-50530000D03*
D21*
X151445000Y-98175000D03*
X148905000Y-98175000D03*
X147635000Y-98175000D03*
X146365000Y-98175000D03*
X145095000Y-98175000D03*
X143825000Y-98175000D03*
X142555000Y-98175000D03*
X142555000Y-91825000D03*
X143825000Y-91825000D03*
X145095000Y-91825000D03*
X146365000Y-91825000D03*
X147635000Y-91825000D03*
X148905000Y-91825000D03*
X150175000Y-91825000D03*
X151445000Y-91825000D03*
X150175000Y-98175000D03*
D11*
X187325000Y-86780000D03*
X187325000Y-89320000D03*
X187325000Y-90590000D03*
X187325000Y-91860000D03*
X187325000Y-93130000D03*
X187325000Y-94400000D03*
X187325000Y-95670000D03*
X180975000Y-95670000D03*
X180975000Y-94400000D03*
X180975000Y-93130000D03*
X180975000Y-91860000D03*
X180975000Y-90590000D03*
X180975000Y-89320000D03*
X180975000Y-88050000D03*
X180975000Y-86780000D03*
X187325000Y-88050000D03*
D13*
X137200000Y-80430000D03*
D14*
X139740000Y-80430000D03*
X142280000Y-80430000D03*
X144820000Y-80430000D03*
X147360000Y-80430000D03*
X149900000Y-80430000D03*
X152440000Y-80430000D03*
X154980000Y-80430000D03*
X157520000Y-80430000D03*
X160060000Y-80430000D03*
X162600000Y-80430000D03*
X165140000Y-80430000D03*
X167680000Y-80430000D03*
X170220000Y-80430000D03*
X172760000Y-80430000D03*
X175300000Y-80430000D03*
X177840000Y-80430000D03*
X180380000Y-80430000D03*
X182920000Y-80430000D03*
X185460000Y-80430000D03*
X188000000Y-80430000D03*
X190540000Y-80430000D03*
X193080000Y-80430000D03*
X195620000Y-80430000D03*
X198160000Y-80430000D03*
X200700000Y-80430000D03*
X198160000Y-60110000D03*
X195620000Y-60110000D03*
X193080000Y-60110000D03*
X190540000Y-60110000D03*
X188000000Y-60110000D03*
X185460000Y-60110000D03*
X182920000Y-60110000D03*
X180380000Y-60110000D03*
X177840000Y-60110000D03*
X175300000Y-60110000D03*
X172760000Y-60110000D03*
X170220000Y-60110000D03*
X167680000Y-60110000D03*
X165140000Y-60110000D03*
X162600000Y-60110000D03*
X160060000Y-60110000D03*
X157520000Y-60110000D03*
X154980000Y-60110000D03*
X152440000Y-60110000D03*
X149900000Y-60110000D03*
X147360000Y-60110000D03*
X144820000Y-60110000D03*
X142280000Y-60110000D03*
X139740000Y-60110000D03*
X137200000Y-60110000D03*
X200700000Y-60110000D03*
D22*
X191000000Y-70000000D03*
X197000000Y-70000000D03*
X194000000Y-65300000D03*
D23*
X154954000Y-96688000D03*
X154954000Y-94188000D03*
D24*
X150810000Y-102530000D03*
X153510000Y-102530000D03*
D25*
X191770000Y-104560000D03*
D26*
X194310000Y-104560000D03*
X191770000Y-107100000D03*
X194310000Y-107100000D03*
X191770000Y-109640000D03*
X194310000Y-109640000D03*
X191770000Y-112180000D03*
X194310000Y-112180000D03*
X191770000Y-114720000D03*
X194310000Y-114720000D03*
X191770000Y-117260000D03*
X194310000Y-117260000D03*
X191770000Y-119800000D03*
X194310000Y-119800000D03*
D25*
X191770000Y-86780000D03*
D26*
X194310000Y-86780000D03*
X191770000Y-89320000D03*
X194310000Y-89320000D03*
X191770000Y-91860000D03*
X194310000Y-91860000D03*
X191770000Y-94400000D03*
X194310000Y-94400000D03*
X191770000Y-96940000D03*
X194310000Y-96940000D03*
X191770000Y-99480000D03*
X194310000Y-99480000D03*
X191770000Y-102020000D03*
X194310000Y-102020000D03*
D25*
X195000000Y-42960000D03*
D26*
X195000000Y-45500000D03*
X195000000Y-48040000D03*
X195000000Y-50580000D03*
D27*
X106500000Y-124700000D03*
X106500000Y-122500000D03*
X106500000Y-46200000D03*
X106500000Y-44000000D03*
D28*
X109350000Y-113500000D03*
X109350000Y-118650000D03*
X107650000Y-118650000D03*
X107650000Y-113500000D03*
D29*
X109875000Y-116075000D03*
X107125000Y-116075000D03*
M02*
