G04 #@! TF.FileFunction,Copper,L1,Top,Signal*
%FSLAX46Y46*%
G04 Gerber Fmt 4.6, Leading zero omitted, Abs format (unit mm)*
G04 Created by KiCad (PCBNEW 4.0.6) date 11/13/18 16:30:56*
%MOMM*%
%LPD*%
G01*
G04 APERTURE LIST*
%ADD10C,0.100000*%
%ADD11R,1.143000X0.508000*%
%ADD12R,2.600000X1.600000*%
%ADD13R,1.524000X1.524000*%
%ADD14C,1.524000*%
%ADD15R,1.800000X1.800000*%
%ADD16O,1.800000X1.800000*%
%ADD17R,3.000000X1.600000*%
%ADD18R,1.600000X3.000000*%
%ADD19C,1.408000*%
%ADD20C,2.400000*%
%ADD21R,0.508000X1.143000*%
%ADD22R,3.500000X3.500000*%
%ADD23R,1.250000X1.500000*%
%ADD24R,1.500000X1.300000*%
%ADD25R,1.700000X1.700000*%
%ADD26O,1.700000X1.700000*%
%ADD27R,0.900000X1.200000*%
%ADD28R,1.000000X1.450000*%
%ADD29C,0.600000*%
%ADD30C,0.500000*%
%ADD31C,0.250000*%
G04 APERTURE END LIST*
D10*
D11*
X187175000Y-104555000D03*
X187175000Y-107095000D03*
X187175000Y-108365000D03*
X187175000Y-109635000D03*
X187175000Y-110905000D03*
X187175000Y-112175000D03*
X187175000Y-113445000D03*
X180825000Y-113445000D03*
X180825000Y-112175000D03*
X180825000Y-110905000D03*
X180825000Y-109635000D03*
X180825000Y-108365000D03*
X180825000Y-107095000D03*
X180825000Y-105825000D03*
X180825000Y-104555000D03*
X187175000Y-105825000D03*
D12*
X155600000Y-111000000D03*
X152000000Y-111000000D03*
D13*
X149110000Y-54850000D03*
D14*
X151650000Y-54850000D03*
X154190000Y-54850000D03*
X156730000Y-54850000D03*
X159270000Y-54850000D03*
X161810000Y-54850000D03*
D13*
X164350000Y-54850000D03*
D14*
X166890000Y-54850000D03*
X166890000Y-42150000D03*
X164350000Y-42150000D03*
X161810000Y-42150000D03*
X159270000Y-42150000D03*
X156730000Y-42150000D03*
X154190000Y-42150000D03*
X151650000Y-42150000D03*
X149110000Y-42150000D03*
D15*
X154540000Y-119000000D03*
D16*
X152000000Y-119000000D03*
X149460000Y-119000000D03*
D17*
X143600000Y-111000000D03*
X148000000Y-111000000D03*
D18*
X144000000Y-46300000D03*
X144000000Y-50700000D03*
D19*
X131490000Y-63490000D03*
X128950000Y-62220000D03*
X131490000Y-60950000D03*
X128950000Y-59680000D03*
X131490000Y-58410000D03*
X128950000Y-57140000D03*
X131490000Y-55870000D03*
X128950000Y-54600000D03*
X124890000Y-63490000D03*
X122350000Y-62220000D03*
X124890000Y-60950000D03*
X122350000Y-59680000D03*
X124890000Y-58410000D03*
X122350000Y-57140000D03*
X124890000Y-55870000D03*
X122350000Y-54600000D03*
X131490000Y-77460000D03*
X128950000Y-76190000D03*
X131490000Y-74920000D03*
X128950000Y-73650000D03*
X131490000Y-72380000D03*
X128950000Y-71110000D03*
X131490000Y-69840000D03*
X128950000Y-68570000D03*
X124890000Y-77460000D03*
X122350000Y-76190000D03*
X124890000Y-74920000D03*
X122350000Y-73650000D03*
X124890000Y-72380000D03*
X122350000Y-71110000D03*
X124890000Y-69840000D03*
X122350000Y-68570000D03*
X131490000Y-105400000D03*
X128950000Y-104130000D03*
X131490000Y-102860000D03*
X128950000Y-101590000D03*
X131490000Y-100320000D03*
X128950000Y-99050000D03*
X131490000Y-97780000D03*
X128950000Y-96510000D03*
X124890000Y-105400000D03*
X122350000Y-104130000D03*
X124890000Y-102860000D03*
X122350000Y-101590000D03*
X124890000Y-100320000D03*
X122350000Y-99050000D03*
X124890000Y-97780000D03*
X122350000Y-96510000D03*
X131490000Y-91430000D03*
X128950000Y-90160000D03*
X131490000Y-88890000D03*
X128950000Y-87620000D03*
X131490000Y-86350000D03*
X128950000Y-85080000D03*
X131490000Y-83810000D03*
X128950000Y-82540000D03*
X124890000Y-91430000D03*
X122350000Y-90160000D03*
X124890000Y-88890000D03*
X122350000Y-87620000D03*
X124890000Y-86350000D03*
X122350000Y-85080000D03*
X124890000Y-83810000D03*
X122350000Y-82540000D03*
D20*
X111430000Y-109470000D03*
X121850000Y-108710000D03*
X127430000Y-109470000D03*
X111430000Y-50530000D03*
X125150000Y-51290000D03*
X131500000Y-50530000D03*
D21*
X151445000Y-98175000D03*
X148905000Y-98175000D03*
X147635000Y-98175000D03*
X146365000Y-98175000D03*
X145095000Y-98175000D03*
X143825000Y-98175000D03*
X142555000Y-98175000D03*
X142555000Y-91825000D03*
X143825000Y-91825000D03*
X145095000Y-91825000D03*
X146365000Y-91825000D03*
X147635000Y-91825000D03*
X148905000Y-91825000D03*
X150175000Y-91825000D03*
X151445000Y-91825000D03*
X150175000Y-98175000D03*
D11*
X187325000Y-86780000D03*
X187325000Y-89320000D03*
X187325000Y-90590000D03*
X187325000Y-91860000D03*
X187325000Y-93130000D03*
X187325000Y-94400000D03*
X187325000Y-95670000D03*
X180975000Y-95670000D03*
X180975000Y-94400000D03*
X180975000Y-93130000D03*
X180975000Y-91860000D03*
X180975000Y-90590000D03*
X180975000Y-89320000D03*
X180975000Y-88050000D03*
X180975000Y-86780000D03*
X187325000Y-88050000D03*
D13*
X137200000Y-80430000D03*
D14*
X139740000Y-80430000D03*
X142280000Y-80430000D03*
X144820000Y-80430000D03*
X147360000Y-80430000D03*
X149900000Y-80430000D03*
X152440000Y-80430000D03*
X154980000Y-80430000D03*
X157520000Y-80430000D03*
X160060000Y-80430000D03*
X162600000Y-80430000D03*
X165140000Y-80430000D03*
X167680000Y-80430000D03*
X170220000Y-80430000D03*
X172760000Y-80430000D03*
X175300000Y-80430000D03*
X177840000Y-80430000D03*
X180380000Y-80430000D03*
X182920000Y-80430000D03*
X185460000Y-80430000D03*
X188000000Y-80430000D03*
X190540000Y-80430000D03*
X193080000Y-80430000D03*
X195620000Y-80430000D03*
X198160000Y-80430000D03*
X200700000Y-80430000D03*
X198160000Y-60110000D03*
X195620000Y-60110000D03*
X193080000Y-60110000D03*
X190540000Y-60110000D03*
X188000000Y-60110000D03*
X185460000Y-60110000D03*
X182920000Y-60110000D03*
X180380000Y-60110000D03*
X177840000Y-60110000D03*
X175300000Y-60110000D03*
X172760000Y-60110000D03*
X170220000Y-60110000D03*
X167680000Y-60110000D03*
X165140000Y-60110000D03*
X162600000Y-60110000D03*
X160060000Y-60110000D03*
X157520000Y-60110000D03*
X154980000Y-60110000D03*
X152440000Y-60110000D03*
X149900000Y-60110000D03*
X147360000Y-60110000D03*
X144820000Y-60110000D03*
X142280000Y-60110000D03*
X139740000Y-60110000D03*
X137200000Y-60110000D03*
X200700000Y-60110000D03*
D22*
X191000000Y-70000000D03*
X197000000Y-70000000D03*
X194000000Y-65300000D03*
D23*
X154954000Y-96688000D03*
X154954000Y-94188000D03*
D24*
X150810000Y-102530000D03*
X153510000Y-102530000D03*
D25*
X191770000Y-104560000D03*
D26*
X194310000Y-104560000D03*
X191770000Y-107100000D03*
X194310000Y-107100000D03*
X191770000Y-109640000D03*
X194310000Y-109640000D03*
X191770000Y-112180000D03*
X194310000Y-112180000D03*
X191770000Y-114720000D03*
X194310000Y-114720000D03*
X191770000Y-117260000D03*
X194310000Y-117260000D03*
X191770000Y-119800000D03*
X194310000Y-119800000D03*
D25*
X191770000Y-86780000D03*
D26*
X194310000Y-86780000D03*
X191770000Y-89320000D03*
X194310000Y-89320000D03*
X191770000Y-91860000D03*
X194310000Y-91860000D03*
X191770000Y-94400000D03*
X194310000Y-94400000D03*
X191770000Y-96940000D03*
X194310000Y-96940000D03*
X191770000Y-99480000D03*
X194310000Y-99480000D03*
X191770000Y-102020000D03*
X194310000Y-102020000D03*
D25*
X195000000Y-42960000D03*
D26*
X195000000Y-45500000D03*
X195000000Y-48040000D03*
X195000000Y-50580000D03*
D27*
X106500000Y-124700000D03*
X106500000Y-122500000D03*
X106500000Y-46200000D03*
X106500000Y-44000000D03*
D28*
X109350000Y-113500000D03*
X109350000Y-118650000D03*
X107650000Y-118650000D03*
X107650000Y-113500000D03*
D29*
X147000000Y-48500000D03*
X147000000Y-51500000D03*
X150580100Y-113495800D03*
X145629700Y-111121000D03*
X137514200Y-87398800D03*
X135857200Y-86135800D03*
X137432700Y-90877700D03*
X122117800Y-86350000D03*
X133539200Y-97278200D03*
X149681200Y-99826500D03*
X162925800Y-103615800D03*
X164180400Y-102330400D03*
X165480400Y-101090400D03*
X166729700Y-99799700D03*
X165949000Y-96479000D03*
X165963900Y-93953900D03*
X165928600Y-91378600D03*
X176672700Y-87064800D03*
X177500000Y-85999974D03*
X178565694Y-86565694D03*
X179500000Y-85000000D03*
X186000000Y-85000002D03*
X187500000Y-84500000D03*
X189000000Y-84500000D03*
D30*
X187175000Y-113445000D02*
X185038000Y-113445000D01*
X185038000Y-113445000D02*
X185000000Y-113483000D01*
X183500000Y-114983000D02*
X183437300Y-115045700D01*
X185000000Y-110876600D02*
X185000000Y-113483000D01*
X185000000Y-113483000D02*
X183500000Y-114983000D01*
X155600000Y-111000000D02*
X155600000Y-113985700D01*
X155600000Y-113985700D02*
X154540000Y-115045700D01*
X183437300Y-115045700D02*
X154540000Y-115045700D01*
X185000000Y-96923500D02*
X185000000Y-110876600D01*
X187325000Y-95670000D02*
X186253500Y-95670000D01*
X186253500Y-95670000D02*
X185000000Y-96923500D01*
X147000000Y-48000000D02*
X145300000Y-46300000D01*
X145300000Y-46300000D02*
X144000000Y-46300000D01*
X147000000Y-48500000D02*
X147000000Y-48000000D01*
X143200000Y-45500000D02*
X144000000Y-46300000D01*
X124890000Y-92450000D02*
X128950000Y-96510000D01*
X124890000Y-91430000D02*
X124890000Y-92450000D01*
X128950000Y-81520000D02*
X124890000Y-77460000D01*
X128950000Y-82540000D02*
X128950000Y-81520000D01*
X127790600Y-55759400D02*
X128950000Y-54600000D01*
X127790600Y-57628600D02*
X127790600Y-55759400D01*
X128626000Y-58464000D02*
X127790600Y-57628600D01*
X129435500Y-58464000D02*
X128626000Y-58464000D01*
X130139000Y-59167500D02*
X129435500Y-58464000D01*
X130139000Y-60138600D02*
X130139000Y-59167500D01*
X129327600Y-60950000D02*
X130139000Y-60138600D01*
X127430000Y-60950000D02*
X129327600Y-60950000D01*
X124890000Y-63490000D02*
X127430000Y-60950000D01*
X134449700Y-54600000D02*
X142749700Y-46300000D01*
X128950000Y-54600000D02*
X134449700Y-54600000D01*
X144000000Y-46300000D02*
X142749700Y-46300000D01*
X154540000Y-119000000D02*
X154540000Y-117649700D01*
X135590100Y-114650800D02*
X154145100Y-114650800D01*
X126339300Y-105400000D02*
X135590100Y-114650800D01*
X124890000Y-105400000D02*
X126339300Y-105400000D01*
X154540000Y-115045700D02*
X154540000Y-117649700D01*
X154145100Y-114650800D02*
X154540000Y-115045700D01*
X187325000Y-117217500D02*
X187175000Y-113445000D01*
X191278400Y-121170900D02*
X187325000Y-117217500D01*
X192939100Y-121170900D02*
X191278400Y-121170900D01*
X194310000Y-119800000D02*
X192939100Y-121170900D01*
X187175000Y-113445000D02*
X186664100Y-113445000D01*
X186664100Y-113445000D02*
X186663900Y-113444800D01*
X180825000Y-113445000D02*
X181896500Y-113445000D01*
X181896500Y-113445000D02*
X183500000Y-111841500D01*
X183500000Y-111841500D02*
X183500000Y-98949000D01*
X183500000Y-98949000D02*
X180975000Y-96424000D01*
X180975000Y-96424000D02*
X180975000Y-95670000D01*
X180825000Y-113445000D02*
X161570200Y-113445000D01*
X161570200Y-113445000D02*
X156364900Y-108239700D01*
X156364900Y-108239700D02*
X153510000Y-108239700D01*
X147000000Y-51500000D02*
X144800000Y-51500000D01*
X144800000Y-51500000D02*
X144000000Y-50700000D01*
X106500000Y-124700000D02*
X107400300Y-124700000D01*
X108024800Y-117099900D02*
X107650000Y-117474700D01*
X108024800Y-115050100D02*
X108024800Y-117099900D01*
X107650000Y-114675300D02*
X108024800Y-115050100D01*
X107650000Y-118650000D02*
X107650000Y-117474700D01*
X107400300Y-46500300D02*
X107400300Y-46200000D01*
X111430000Y-50530000D02*
X107400300Y-46500300D01*
X106500000Y-46200000D02*
X107400300Y-46200000D01*
X154954000Y-94188000D02*
X153878700Y-94188000D01*
X151445000Y-91825000D02*
X151445000Y-92846800D01*
X125287100Y-90160000D02*
X131490000Y-96362900D01*
X122350000Y-90160000D02*
X125287100Y-90160000D01*
X131490000Y-96362900D02*
X131490000Y-97780000D01*
X148000000Y-111000000D02*
X149950300Y-111000000D01*
X152537500Y-92846800D02*
X153878700Y-94188000D01*
X151445000Y-92846800D02*
X152537500Y-92846800D01*
X135006000Y-92846900D02*
X131490000Y-96362900D01*
X151445000Y-92846900D02*
X135006000Y-92846900D01*
X151445000Y-92846800D02*
X151445000Y-92846900D01*
X134180100Y-112250300D02*
X148000000Y-112250300D01*
X126059800Y-104130000D02*
X134180100Y-112250300D01*
X122350000Y-104130000D02*
X126059800Y-104130000D01*
X148000000Y-111000000D02*
X148000000Y-112250300D01*
X107400300Y-120075000D02*
X107400300Y-124700000D01*
X107650000Y-119825300D02*
X107400300Y-120075000D01*
X107650000Y-118650000D02*
X107650000Y-119825300D01*
X191439800Y-65300000D02*
X194000000Y-65300000D01*
X186730000Y-60590200D02*
X191439800Y-65300000D01*
X186730000Y-59648600D02*
X186730000Y-60590200D01*
X183143700Y-56062300D02*
X186730000Y-59648600D01*
X166319900Y-56062300D02*
X183143700Y-56062300D01*
X165562300Y-55304700D02*
X166319900Y-56062300D01*
X165562300Y-54850000D02*
X165562300Y-55304700D01*
X164350000Y-54850000D02*
X165562300Y-54850000D01*
X107650000Y-114087600D02*
X107650000Y-114675300D01*
X149110000Y-54850000D02*
X147897700Y-54850000D01*
X144000000Y-50700000D02*
X144000000Y-52650300D01*
X149950300Y-111000000D02*
X152000000Y-111000000D01*
X139740000Y-56789900D02*
X139740000Y-60110000D01*
X138820100Y-55870000D02*
X131490000Y-55870000D01*
X139740000Y-56789900D02*
X138820100Y-55870000D01*
X146199700Y-54850000D02*
X144000000Y-52650300D01*
X147897700Y-54850000D02*
X146199700Y-54850000D01*
X139860400Y-56789900D02*
X139740000Y-56789900D01*
X144000000Y-52650300D02*
X139860400Y-56789900D01*
X153510000Y-102530000D02*
X153510000Y-108239700D01*
X153510000Y-108239700D02*
X152000000Y-109749700D01*
X152000000Y-110374800D02*
X152000000Y-109749700D01*
X152000000Y-110374800D02*
X152000000Y-111000000D01*
X151825600Y-112250300D02*
X150580100Y-113495800D01*
X152000000Y-112250300D02*
X151825600Y-112250300D01*
X152000000Y-111000000D02*
X152000000Y-112250300D01*
X107650000Y-114087600D02*
X107650000Y-113500000D01*
X114155300Y-112324700D02*
X122350000Y-104130000D01*
X107650000Y-112324700D02*
X114155300Y-112324700D01*
X107650000Y-113500000D02*
X107650000Y-112324700D01*
X137200000Y-80430000D02*
X135987700Y-80430000D01*
X120670500Y-63899500D02*
X122350000Y-62220000D01*
X120670500Y-71069600D02*
X120670500Y-63899500D01*
X121980900Y-72380000D02*
X120670500Y-71069600D01*
X122760200Y-72380000D02*
X121980900Y-72380000D01*
X124117100Y-73736800D02*
X122760200Y-72380000D01*
X124088300Y-73765600D02*
X124117100Y-73736800D01*
X124088300Y-73979900D02*
X124088300Y-73765600D01*
X122350000Y-75718200D02*
X124088300Y-73979900D01*
X122350000Y-76190000D02*
X122350000Y-75718200D01*
X135987700Y-80430000D02*
X134870000Y-80430000D01*
X134870000Y-80430000D02*
X131490000Y-83810000D01*
X131189200Y-76305600D02*
X129558200Y-74674500D01*
X131968200Y-76305600D02*
X131189200Y-76305600D01*
X134870000Y-79207400D02*
X131968200Y-76305600D01*
X134870000Y-80430000D02*
X134870000Y-79207400D01*
X129428300Y-74804400D02*
X129558200Y-74674500D01*
X127198800Y-74804400D02*
X129428300Y-74804400D01*
X126131200Y-73736800D02*
X127198800Y-74804400D01*
X124117100Y-73736800D02*
X126131200Y-73736800D01*
X130104400Y-71225600D02*
X131490000Y-69840000D01*
X130104400Y-74128300D02*
X130104400Y-71225600D01*
X129558200Y-74674500D02*
X130104400Y-74128300D01*
X151445000Y-97839200D02*
X151445000Y-97153200D01*
X151445000Y-97839200D02*
X151445000Y-98175000D01*
X151445000Y-98175000D02*
X151445000Y-99196800D01*
X143600000Y-111000000D02*
X145550300Y-111000000D01*
X145550300Y-111041600D02*
X145629700Y-111121000D01*
X145550300Y-111000000D02*
X145550300Y-111041600D01*
X137980300Y-104130000D02*
X143600000Y-109749700D01*
X130629500Y-104130000D02*
X137980300Y-104130000D01*
X129359500Y-102860000D02*
X130629500Y-104130000D01*
X124890000Y-102860000D02*
X129359500Y-102860000D01*
X143600000Y-111000000D02*
X143600000Y-109749700D01*
X152010400Y-99762200D02*
X151445000Y-99196800D01*
X152010400Y-103868400D02*
X152010400Y-99762200D01*
X145550300Y-110328500D02*
X152010400Y-103868400D01*
X145550300Y-111000000D02*
X145550300Y-110328500D01*
X151910200Y-96688000D02*
X154954000Y-96688000D01*
X151445000Y-97153200D02*
X151910200Y-96688000D01*
X154954000Y-96688000D02*
X156029300Y-96688000D01*
X169727600Y-82989700D02*
X156029300Y-96688000D01*
X198140300Y-82989700D02*
X169727600Y-82989700D01*
X200700000Y-80430000D02*
X198140300Y-82989700D01*
X130136600Y-80166600D02*
X124890000Y-74920000D01*
X130136600Y-83893400D02*
X130136600Y-80166600D01*
X128950000Y-85080000D02*
X130136600Y-83893400D01*
X134230000Y-57140000D02*
X137200000Y-60110000D01*
X128950000Y-57140000D02*
X134230000Y-57140000D01*
D31*
X138900000Y-63490000D02*
X131490000Y-63490000D01*
X142280000Y-60110000D02*
X138900000Y-63490000D01*
X145095000Y-91825000D02*
X145095000Y-90928200D01*
X141565600Y-87398800D02*
X137514200Y-87398800D01*
X145095000Y-90928200D02*
X141565600Y-87398800D01*
X126160000Y-101590000D02*
X128950000Y-101590000D01*
X124890000Y-100320000D02*
X126160000Y-101590000D01*
X127680000Y-72380000D02*
X128950000Y-73650000D01*
X124890000Y-72380000D02*
X127680000Y-72380000D01*
X124890000Y-58410000D02*
X126904800Y-60424700D01*
X127649500Y-59680000D02*
X128950000Y-59680000D01*
X126904800Y-60424700D02*
X127649500Y-59680000D01*
X125109500Y-62220000D02*
X126904800Y-60424700D01*
X124676000Y-62220000D02*
X125109500Y-62220000D01*
X121300200Y-65595800D02*
X124676000Y-62220000D01*
X121300200Y-69006400D02*
X121300200Y-65595800D01*
X122133800Y-69840000D02*
X121300200Y-69006400D01*
X122551000Y-69840000D02*
X122133800Y-69840000D01*
X124890000Y-72179000D02*
X122551000Y-69840000D01*
X124890000Y-72380000D02*
X124890000Y-72179000D01*
X126160000Y-87620000D02*
X124890000Y-86350000D01*
X128950000Y-87620000D02*
X126160000Y-87620000D01*
X133464200Y-87620000D02*
X128950000Y-87620000D01*
X135786800Y-85297400D02*
X133464200Y-87620000D01*
X152365000Y-85297400D02*
X135786800Y-85297400D01*
X157232400Y-80430000D02*
X152365000Y-85297400D01*
X157520000Y-80430000D02*
X157232400Y-80430000D01*
X141572600Y-86135800D02*
X135857200Y-86135800D01*
X146365000Y-90928200D02*
X141572600Y-86135800D01*
X146365000Y-91825000D02*
X146365000Y-90928200D01*
X142555000Y-91825000D02*
X142555000Y-90928200D01*
X137483200Y-90928200D02*
X137432700Y-90877700D01*
X142555000Y-90928200D02*
X137483200Y-90928200D01*
X143825000Y-91825000D02*
X143825000Y-90928200D01*
X122921700Y-86350000D02*
X122117800Y-86350000D01*
X124191700Y-87620000D02*
X122921700Y-86350000D01*
X125523100Y-87620000D02*
X124191700Y-87620000D01*
X126793100Y-88890000D02*
X125523100Y-87620000D01*
X129760600Y-88890000D02*
X126793100Y-88890000D01*
X131063800Y-90193200D02*
X129760600Y-88890000D01*
X143090000Y-90193200D02*
X131063800Y-90193200D01*
X143825000Y-90928200D02*
X143090000Y-90193200D01*
X141206300Y-68803700D02*
X149900000Y-60110000D01*
X130796900Y-68803700D02*
X141206300Y-68803700D01*
X129989900Y-69610700D02*
X130796900Y-68803700D01*
X126159400Y-69610700D02*
X129989900Y-69610700D01*
X125118700Y-68570000D02*
X126159400Y-69610700D01*
X122350000Y-68570000D02*
X125118700Y-68570000D01*
X142576800Y-102860000D02*
X131490000Y-102860000D01*
X146365000Y-99071800D02*
X142576800Y-102860000D01*
X146365000Y-98175000D02*
X146365000Y-99071800D01*
X126460600Y-99050000D02*
X122350000Y-99050000D01*
X127889900Y-100479300D02*
X126460600Y-99050000D01*
X129295100Y-100479300D02*
X127889900Y-100479300D01*
X130216700Y-101400900D02*
X129295100Y-100479300D01*
X142765900Y-101400900D02*
X130216700Y-101400900D01*
X145095000Y-99071800D02*
X142765900Y-101400900D01*
X145095000Y-98175000D02*
X145095000Y-99071800D01*
X143825000Y-98175000D02*
X143825000Y-97278200D01*
X143825000Y-97278200D02*
X133539200Y-97278200D01*
X121320000Y-86110000D02*
X122350000Y-85080000D01*
X121320000Y-90588700D02*
X121320000Y-86110000D01*
X128670600Y-97939300D02*
X121320000Y-90588700D01*
X129295100Y-97939300D02*
X128670600Y-97939300D01*
X130427600Y-99071800D02*
X129295100Y-97939300D01*
X142555000Y-99071800D02*
X130427600Y-99071800D01*
X142555000Y-98175000D02*
X142555000Y-99071800D01*
X125118700Y-82540000D02*
X122350000Y-82540000D01*
X127059800Y-84481100D02*
X125118700Y-82540000D01*
X127059800Y-84683200D02*
X127059800Y-84481100D01*
X128491200Y-86114600D02*
X127059800Y-84683200D01*
X129371200Y-86114600D02*
X128491200Y-86114600D01*
X130638900Y-84846900D02*
X129371200Y-86114600D01*
X134813200Y-84846900D02*
X130638900Y-84846900D01*
X138310700Y-81349400D02*
X134813200Y-84846900D01*
X138310700Y-74239300D02*
X138310700Y-81349400D01*
X152440000Y-60110000D02*
X138310700Y-74239300D01*
D30*
X163022300Y-53637700D02*
X161810000Y-54850000D01*
X195767700Y-53637700D02*
X163022300Y-53637700D01*
X197800600Y-51604800D02*
X195767700Y-53637700D01*
X197800600Y-45760600D02*
X197800600Y-51604800D01*
X195000000Y-42960000D02*
X197800600Y-45760600D01*
X161182600Y-52937400D02*
X159270000Y-54850000D01*
X195477500Y-52937400D02*
X161182600Y-52937400D01*
X197070600Y-51344300D02*
X195477500Y-52937400D01*
X197070600Y-47570600D02*
X197070600Y-51344300D01*
X195000000Y-45500000D02*
X197070600Y-47570600D01*
X159607100Y-51972900D02*
X156730000Y-54850000D01*
X195451400Y-51972900D02*
X159607100Y-51972900D01*
X196310400Y-51113900D02*
X195451400Y-51972900D01*
X196310400Y-49350400D02*
X196310400Y-51113900D01*
X195000000Y-48040000D02*
X196310400Y-49350400D01*
X193393200Y-50886500D02*
X193699700Y-50580000D01*
X158153500Y-50886500D02*
X193393200Y-50886500D01*
X154190000Y-54850000D02*
X158153500Y-50886500D01*
X195000000Y-50580000D02*
X193699700Y-50580000D01*
D31*
X150810000Y-102530000D02*
X150810000Y-101554700D01*
X150810000Y-99706800D02*
X150175000Y-99071800D01*
X150810000Y-101554700D02*
X150810000Y-99706800D01*
X150175000Y-98175000D02*
X150175000Y-99071800D01*
X148926500Y-99071800D02*
X148905000Y-99071800D01*
X149681200Y-99826500D02*
X148926500Y-99071800D01*
X148905000Y-98175000D02*
X148905000Y-99071800D01*
X149563000Y-95350200D02*
X147635000Y-97278200D01*
X155629200Y-95350200D02*
X149563000Y-95350200D01*
X167680000Y-83299400D02*
X155629200Y-95350200D01*
X167680000Y-80430000D02*
X167680000Y-83299400D01*
X147635000Y-98175000D02*
X147635000Y-97278200D01*
X157045800Y-81517400D02*
X147635000Y-90928200D01*
X160529600Y-81517400D02*
X157045800Y-81517400D01*
X161330000Y-80717000D02*
X160529600Y-81517400D01*
X161330000Y-80140300D02*
X161330000Y-80717000D01*
X162151800Y-79318500D02*
X161330000Y-80140300D01*
X164028500Y-79318500D02*
X162151800Y-79318500D01*
X165140000Y-80430000D02*
X164028500Y-79318500D01*
X147635000Y-91825000D02*
X147635000Y-90928200D01*
X149949900Y-89883300D02*
X148905000Y-90928200D01*
X153146700Y-89883300D02*
X149949900Y-89883300D01*
X162600000Y-80430000D02*
X153146700Y-89883300D01*
X148905000Y-91825000D02*
X148905000Y-90928200D01*
X156301900Y-90928200D02*
X150175000Y-90928200D01*
X166258600Y-80971500D02*
X156301900Y-90928200D01*
X166258600Y-79947400D02*
X166258600Y-80971500D01*
X165170500Y-78859300D02*
X166258600Y-79947400D01*
X161630700Y-78859300D02*
X165170500Y-78859300D01*
X160060000Y-80430000D02*
X161630700Y-78859300D01*
X150175000Y-91825000D02*
X150175000Y-90928200D01*
X170000000Y-110690000D02*
X162925800Y-103615800D01*
X179828500Y-112000000D02*
X171310000Y-112000000D01*
X171310000Y-112000000D02*
X170000000Y-110690000D01*
X180825000Y-112175000D02*
X180003500Y-112175000D01*
X180003500Y-112175000D02*
X179828500Y-112000000D01*
X171350000Y-109500000D02*
X164180400Y-102330400D01*
X180825000Y-110905000D02*
X172755000Y-110905000D01*
X172755000Y-110905000D02*
X171350000Y-109500000D01*
X180825000Y-109635000D02*
X180003500Y-109635000D01*
X180003500Y-109635000D02*
X179868500Y-109500000D01*
X179868500Y-109500000D02*
X173890000Y-109500000D01*
X173890000Y-109500000D02*
X165780399Y-101390399D01*
X165780399Y-101390399D02*
X165480400Y-101090400D01*
X167029699Y-100099699D02*
X166729700Y-99799700D01*
X175295000Y-108365000D02*
X167029699Y-100099699D01*
X180825000Y-108365000D02*
X175295000Y-108365000D01*
X179908500Y-107000000D02*
X176470000Y-107000000D01*
X176470000Y-107000000D02*
X175300000Y-105830000D01*
X180825000Y-107095000D02*
X180003500Y-107095000D01*
X180003500Y-107095000D02*
X179908500Y-107000000D01*
X175300000Y-105830000D02*
X165949000Y-96479000D01*
X177510000Y-105510000D02*
X177825000Y-105825000D01*
X177825000Y-105825000D02*
X180825000Y-105825000D01*
X177510000Y-105500000D02*
X177510000Y-105510000D01*
X180825000Y-105825000D02*
X180003500Y-105825000D01*
X180003500Y-105825000D02*
X180000000Y-105821500D01*
X177510000Y-105500000D02*
X176570000Y-104560000D01*
X176570000Y-104560000D02*
X165963900Y-93953900D01*
X180825000Y-104555000D02*
X179105000Y-104555000D01*
X179105000Y-104555000D02*
X177840000Y-103290000D01*
X177840000Y-103290000D02*
X165928600Y-91378600D01*
X176672700Y-87064800D02*
X176672700Y-91597702D01*
X179474998Y-94400000D02*
X180153500Y-94400000D01*
X180153500Y-94400000D02*
X180975000Y-94400000D01*
X176672700Y-91597702D02*
X179474998Y-94400000D01*
X177500000Y-86424238D02*
X177500000Y-85999974D01*
X177500000Y-89972500D02*
X177500000Y-86424238D01*
X180975000Y-93130000D02*
X180657500Y-93130000D01*
X180657500Y-93130000D02*
X177500000Y-89972500D01*
X180975000Y-91860000D02*
X180657500Y-91860000D01*
X178565694Y-89768194D02*
X178565694Y-86989958D01*
X180657500Y-91860000D02*
X178565694Y-89768194D01*
X178565694Y-86989958D02*
X178565694Y-86565694D01*
X180975000Y-91860000D02*
X180380800Y-91860000D01*
X179500000Y-89432500D02*
X179500000Y-85424264D01*
X180975000Y-90590000D02*
X180657500Y-90590000D01*
X180657500Y-90590000D02*
X179500000Y-89432500D01*
X179500000Y-85424264D02*
X179500000Y-85000000D01*
X186000000Y-85116500D02*
X186000000Y-85000002D01*
X180975000Y-89320000D02*
X181796500Y-89320000D01*
X181796500Y-89320000D02*
X186000000Y-85116500D01*
X187200001Y-84200001D02*
X187500000Y-84500000D01*
X185874997Y-84200001D02*
X187200001Y-84200001D01*
X180975000Y-88050000D02*
X182024998Y-88050000D01*
X182024998Y-88050000D02*
X185874997Y-84200001D01*
X188700001Y-84200001D02*
X189000000Y-84500000D01*
X188200001Y-83700001D02*
X188700001Y-84200001D01*
X181796500Y-86780000D02*
X184876499Y-83700001D01*
X180975000Y-86780000D02*
X181796500Y-86780000D01*
X184876499Y-83700001D02*
X188200001Y-83700001D01*
X152920000Y-45960000D02*
X149110000Y-42150000D01*
X152920000Y-55123300D02*
X152920000Y-45960000D01*
X154504600Y-56707900D02*
X152920000Y-55123300D01*
X179517900Y-56707900D02*
X154504600Y-56707900D01*
X182920000Y-60110000D02*
X179517900Y-56707900D01*
D30*
X191770000Y-104560000D02*
X187180000Y-104560000D01*
X187180000Y-104560000D02*
X187175000Y-104555000D01*
X191770000Y-107100000D02*
X190495000Y-105825000D01*
X190495000Y-105825000D02*
X187175000Y-105825000D01*
X191770000Y-109640000D02*
X189225000Y-107095000D01*
X189225000Y-107095000D02*
X187175000Y-107095000D01*
X191770000Y-112180000D02*
X187955000Y-108365000D01*
X187955000Y-108365000D02*
X187175000Y-108365000D01*
X187175000Y-109635000D02*
X188035000Y-109635000D01*
X188035000Y-109635000D02*
X190200022Y-111800022D01*
X190200022Y-111800022D02*
X190200022Y-113150021D01*
X190200022Y-113150021D02*
X191770000Y-114720000D01*
X190920001Y-116410001D02*
X191770000Y-117260000D01*
X189500011Y-114990011D02*
X190920001Y-116410001D01*
X187694965Y-110905000D02*
X189500011Y-112710046D01*
X189500011Y-112710046D02*
X189500011Y-114990011D01*
X187175000Y-110905000D02*
X187694965Y-110905000D01*
X191770000Y-119800000D02*
X189170000Y-117200000D01*
X188800000Y-113000000D02*
X188800000Y-116830000D01*
X188800000Y-116830000D02*
X189170000Y-117200000D01*
X188000000Y-112200000D02*
X188800000Y-113000000D01*
X187517500Y-112200000D02*
X188000000Y-112200000D01*
X187492500Y-112175000D02*
X187517500Y-112200000D01*
X187175000Y-112175000D02*
X187492500Y-112175000D01*
X191770000Y-86780000D02*
X187325000Y-86780000D01*
X189199700Y-88050000D02*
X187325000Y-88050000D01*
X190469700Y-89320000D02*
X189199700Y-88050000D01*
X191770000Y-89320000D02*
X190469700Y-89320000D01*
X189230000Y-89320000D02*
X187325000Y-89320000D01*
X191770000Y-91860000D02*
X189230000Y-89320000D01*
X191770000Y-94013200D02*
X188346800Y-90590000D01*
X191770000Y-94400000D02*
X191770000Y-94013200D01*
X187325000Y-90590000D02*
X188346800Y-90590000D01*
X187325000Y-91860000D02*
X188346800Y-91860000D01*
X190413000Y-93926200D02*
X188346800Y-91860000D01*
X190413000Y-95583000D02*
X190413000Y-93926200D01*
X191770000Y-96940000D02*
X190413000Y-95583000D01*
X187325000Y-93130000D02*
X188346800Y-93130000D01*
X189655900Y-94439100D02*
X188346800Y-93130000D01*
X189655900Y-97365900D02*
X189655900Y-94439100D01*
X191770000Y-99480000D02*
X189655900Y-97365900D01*
X187325000Y-94400000D02*
X188346800Y-94400000D01*
X188346800Y-98596800D02*
X188346800Y-94400000D01*
X191770000Y-102020000D02*
X188346800Y-98596800D01*
D31*
X166499600Y-61290400D02*
X167680000Y-60110000D01*
X162381800Y-61290400D02*
X166499600Y-61290400D01*
X143550000Y-80122200D02*
X162381800Y-61290400D01*
X143550000Y-80708700D02*
X143550000Y-80122200D01*
X142131700Y-82127000D02*
X143550000Y-80708700D01*
X138170000Y-82127000D02*
X142131700Y-82127000D01*
X134999600Y-85297400D02*
X138170000Y-82127000D01*
X130825300Y-85297400D02*
X134999600Y-85297400D01*
X129532100Y-86590600D02*
X130825300Y-85297400D01*
X127071700Y-86590600D02*
X129532100Y-86590600D01*
X125561100Y-85080000D02*
X127071700Y-86590600D01*
X124079500Y-85080000D02*
X125561100Y-85080000D01*
X123030100Y-84030600D02*
X124079500Y-85080000D01*
X121930300Y-84030600D02*
X123030100Y-84030600D01*
X106359800Y-99601100D02*
X121930300Y-84030600D01*
X106359800Y-121434500D02*
X106359800Y-99601100D01*
X106500000Y-121574700D02*
X106359800Y-121434500D01*
X106500000Y-122500000D02*
X106500000Y-121574700D01*
X168452900Y-58342900D02*
X170220000Y-60110000D01*
X153601700Y-58342900D02*
X168452900Y-58342900D01*
X150220700Y-54961900D02*
X153601700Y-58342900D01*
X150220700Y-49740200D02*
X150220700Y-54961900D01*
X144480500Y-44000000D02*
X150220700Y-49740200D01*
X106500000Y-44000000D02*
X144480500Y-44000000D01*
X196783700Y-79266300D02*
X195620000Y-80430000D01*
X201097500Y-79266300D02*
X196783700Y-79266300D01*
X201815000Y-79983800D02*
X201097500Y-79266300D01*
X201815000Y-113991100D02*
X201815000Y-79983800D01*
X194059800Y-121746300D02*
X201815000Y-113991100D01*
X113271600Y-121746300D02*
X194059800Y-121746300D01*
X110175300Y-118650000D02*
X113271600Y-121746300D01*
X109350000Y-118650000D02*
X110175300Y-118650000D01*
X109172100Y-117421800D02*
X109350000Y-117599700D01*
X109172100Y-114728200D02*
X109172100Y-117421800D01*
X109350000Y-114550300D02*
X109172100Y-114728200D01*
X109350000Y-113500000D02*
X109350000Y-114550300D01*
X109350000Y-118650000D02*
X109350000Y-117599700D01*
M02*
