M48
;DRILL file {KiCad 4.0.6} date 10/22/17 23:57:59
;FORMAT={-:-/ absolute / metric / decimal}
FMAT,2
METRIC,TZ
T1C0.400
T2C0.762
T3C0.813
T4C0.900
T5C1.000
T6C1.600
T7C0.750
T8C3.200
%
G90
G05
M71
T1
X122.118Y-86.35
X133.539Y-97.278
X135.857Y-86.136
X137.433Y-90.878
X137.514Y-87.399
X145.63Y-111.121
X147.Y-48.5
X147.Y-51.5
X149.681Y-99.826
X150.58Y-113.496
X162.926Y-103.616
X164.18Y-102.33
X165.48Y-101.09
X165.929Y-91.379
X165.949Y-96.479
X165.964Y-93.954
X166.73Y-99.8
X176.673Y-87.065
X177.5Y-86.
X178.566Y-86.566
X179.5Y-85.
X186.Y-85.
X187.5Y-84.5
X189.Y-84.5
T2
X137.2Y-60.11
X137.2Y-80.43
X139.74Y-60.11
X139.74Y-80.43
X142.28Y-60.11
X142.28Y-80.43
X144.82Y-60.11
X144.82Y-80.43
X147.36Y-60.11
X147.36Y-80.43
X149.9Y-60.11
X149.9Y-80.43
X152.44Y-60.11
X152.44Y-80.43
X154.98Y-60.11
X154.98Y-80.43
X157.52Y-60.11
X157.52Y-80.43
X160.06Y-60.11
X160.06Y-80.43
X162.6Y-60.11
X162.6Y-80.43
X165.14Y-60.11
X165.14Y-80.43
X167.68Y-60.11
X167.68Y-80.43
X170.22Y-60.11
X170.22Y-80.43
X172.76Y-60.11
X172.76Y-80.43
X175.3Y-60.11
X175.3Y-80.43
X177.84Y-60.11
X177.84Y-80.43
X180.38Y-60.11
X180.38Y-80.43
X182.92Y-60.11
X182.92Y-80.43
X185.46Y-60.11
X185.46Y-80.43
X188.Y-60.11
X188.Y-80.43
X190.54Y-60.11
X190.54Y-80.43
X193.08Y-60.11
X193.08Y-80.43
X195.62Y-60.11
X195.62Y-80.43
X198.16Y-60.11
X198.16Y-80.43
X200.7Y-60.11
X200.7Y-80.43
T3
X149.11Y-42.15
X149.11Y-54.85
X151.65Y-42.15
X151.65Y-54.85
X154.19Y-42.15
X154.19Y-54.85
X156.73Y-42.15
X156.73Y-54.85
X159.27Y-42.15
X159.27Y-54.85
X161.81Y-42.15
X161.81Y-54.85
X164.35Y-42.15
X164.35Y-54.85
X166.89Y-42.15
X166.89Y-54.85
T4
X122.35Y-54.6
X122.35Y-57.14
X122.35Y-59.68
X122.35Y-62.22
X122.35Y-68.57
X122.35Y-71.11
X122.35Y-73.65
X122.35Y-76.19
X122.35Y-82.54
X122.35Y-85.08
X122.35Y-87.62
X122.35Y-90.16
X122.35Y-96.51
X122.35Y-99.05
X122.35Y-101.59
X122.35Y-104.13
X124.89Y-55.87
X124.89Y-58.41
X124.89Y-60.95
X124.89Y-63.49
X124.89Y-69.84
X124.89Y-72.38
X124.89Y-74.92
X124.89Y-77.46
X124.89Y-83.81
X124.89Y-86.35
X124.89Y-88.89
X124.89Y-91.43
X124.89Y-97.78
X124.89Y-100.32
X124.89Y-102.86
X124.89Y-105.4
X128.95Y-54.6
X128.95Y-57.14
X128.95Y-59.68
X128.95Y-62.22
X128.95Y-68.57
X128.95Y-71.11
X128.95Y-73.65
X128.95Y-76.19
X128.95Y-82.54
X128.95Y-85.08
X128.95Y-87.62
X128.95Y-90.16
X128.95Y-96.51
X128.95Y-99.05
X128.95Y-101.59
X128.95Y-104.13
X131.49Y-55.87
X131.49Y-58.41
X131.49Y-60.95
X131.49Y-63.49
X131.49Y-69.84
X131.49Y-72.38
X131.49Y-74.92
X131.49Y-77.46
X131.49Y-83.81
X131.49Y-86.35
X131.49Y-88.89
X131.49Y-91.43
X131.49Y-97.78
X131.49Y-100.32
X131.49Y-102.86
X131.49Y-105.4
T5
X149.46Y-119.
X152.Y-119.
X154.54Y-119.
X191.77Y-86.78
X191.77Y-89.32
X191.77Y-91.86
X191.77Y-94.4
X191.77Y-96.94
X191.77Y-99.48
X191.77Y-102.02
X191.77Y-104.56
X191.77Y-107.1
X191.77Y-109.64
X191.77Y-112.18
X191.77Y-114.72
X191.77Y-117.26
X191.77Y-119.8
X194.31Y-86.78
X194.31Y-89.32
X194.31Y-91.86
X194.31Y-94.4
X194.31Y-96.94
X194.31Y-99.48
X194.31Y-102.02
X194.31Y-104.56
X194.31Y-107.1
X194.31Y-109.64
X194.31Y-112.18
X194.31Y-114.72
X194.31Y-117.26
X194.31Y-119.8
X195.Y-42.96
X195.Y-45.5
X195.Y-48.04
X195.Y-50.58
T6
X111.43Y-50.53
X111.43Y-109.47
X121.85Y-108.71
X125.15Y-51.29
X127.43Y-109.47
X131.5Y-50.53
T7
X107.125Y-116.075
X109.875Y-116.075
T8
X116.Y-53.33
X116.Y-106.67
T5
X191.Y-71.G85X191.Y-69.
G05
X195.Y-65.3G85X193.Y-65.3
G05
X197.Y-71.G85X197.Y-69.
G05
T0
M30
